<svg width="143" height="39" viewBox="0 0 143 39" fill="none" xmlns="http://www.w3.org/2000/svg">
<g clip-path="url(#clip0_426_494)">
<path d="M6.05065 17.5487C5.9992 17.4814 5.93126 17.4285 5.85338 17.3951C5.77551 17.3617 5.69034 17.349 5.6061 17.3581C5.52187 17.3673 5.44142 17.398 5.37253 17.4473C5.30364 17.4967 5.24865 17.5629 5.21286 17.6397L0.967621 26.1275C0.928947 26.2049 0.910688 26.2909 0.914576 26.3772C0.918464 26.4636 0.94437 26.5476 0.989835 26.6212C1.0353 26.6948 1.09882 26.7555 1.17435 26.7976C1.24988 26.8397 1.33493 26.8618 1.42142 26.8618H7.33269C7.42736 26.864 7.52064 26.8387 7.6012 26.7889C7.68175 26.7391 7.74612 26.667 7.78648 26.5813C9.06162 23.9464 8.28884 19.94 6.05065 17.5487Z" fill="black"/>
<path d="M9.16479 9.82856C8.107 11.4562 7.49056 13.3308 7.37597 15.2686C7.26138 17.2063 7.65258 19.1406 8.51117 20.8815L11.3611 26.5813C11.4032 26.6656 11.468 26.7365 11.5481 26.786C11.6283 26.8355 11.7206 26.8618 11.8148 26.8618H17.7251C17.8115 26.8618 17.8966 26.8397 17.9721 26.7976C18.0477 26.7554 18.1112 26.6947 18.1566 26.6211C18.2021 26.5476 18.228 26.4636 18.2319 26.3772C18.2358 26.2908 18.2175 26.2048 18.1789 26.1275C18.1789 26.1275 10.2276 10.2232 10.0278 9.82538C9.98829 9.74441 9.92676 9.67621 9.85026 9.62861C9.77376 9.58102 9.68539 9.55595 9.5953 9.55628C9.5052 9.55661 9.41702 9.58233 9.34088 9.63049C9.26473 9.67865 9.2037 9.7473 9.16479 9.82856Z" fill="black"/>
<path d="M78.4888 16.6342C78.4888 18.736 79.4638 20.4047 83.2776 21.1414C85.5529 21.6191 86.0295 21.9864 86.0295 22.7448C86.0295 23.4815 85.5519 23.9584 83.9492 23.9584C82.0123 23.9236 80.1141 23.4099 78.4238 22.4633V25.8866C79.5724 26.45 81.089 27.0784 83.906 27.0784C87.893 27.0784 89.4749 25.3004 89.4749 22.658L78.4888 16.6342ZM89.4749 22.658C89.4749 20.1661 88.1531 18.9958 84.4261 18.1944C82.3676 17.7393 81.8692 17.2844 81.8692 16.6342C81.8692 15.8116 82.6059 15.4642 83.971 15.4642C85.6179 15.4642 87.2431 15.9626 88.7815 16.656V13.3839C87.3064 12.7125 85.6998 12.3794 84.0793 12.4089C80.3956 12.4089 78.4888 14.0123 78.4888 16.6342" fill="black"/>
<path d="M129.711 12.6255V26.8619H132.744V16.0059L134.023 18.8876L138.313 26.8619H142.127V12.6255H139.094V21.8131L137.945 19.1477L134.5 12.6255H129.711Z" fill="black"/>
<path d="M110.417 12.6255H107.102V26.8619H110.417V12.6255Z" fill="black"/>
<path d="M103.277 22.6578C103.277 20.1659 101.955 18.9956 98.2279 18.1942C96.1693 17.739 95.671 17.2842 95.671 16.634C95.671 15.8113 96.4077 15.464 97.7728 15.464C99.4197 15.464 101.045 15.9623 102.583 16.6558V13.3837C101.108 12.7122 99.5015 12.3791 97.881 12.4087C94.1973 12.4087 92.2906 14.0121 92.2906 16.634C92.2906 18.7358 93.2656 20.4045 97.0793 21.1412C99.3547 21.6188 99.8313 21.9861 99.8313 22.7446C99.8313 23.4813 99.3536 23.9581 97.751 23.9581C95.814 23.9233 93.9158 23.4097 92.2256 22.463V25.8864C93.3741 26.4498 94.8908 27.0782 97.7077 27.0782C101.695 27.0782 103.277 25.3002 103.277 22.6578Z" fill="black"/>
<path d="M52.7344 12.6255V26.8619H59.5487L60.6216 23.7849H56.0712V12.6255H52.7344Z" fill="black"/>
<path d="M39.2715 12.6255V15.7023H42.9552V26.8619H46.292V15.7023H50.2358V12.6255H39.2715Z" fill="black"/>
<path d="M34.4323 12.6255H30.0591L25.0947 26.8619H28.8859L29.5897 24.4642C31.323 24.9732 33.166 24.9732 34.8993 24.4642L35.6031 26.8619H39.3951L34.4323 12.6255ZM32.2456 21.897C31.628 21.8969 31.0136 21.8085 30.4211 21.6345L32.2456 15.4218L34.07 21.6366C33.4774 21.81 32.863 21.8976 32.2456 21.897Z" fill="black"/>
<path d="M71.2963 12.6255H66.9234L61.959 26.8619H65.751L66.4547 24.4642C68.188 24.9732 70.0311 24.9732 71.7644 24.4642L72.4682 26.8619H76.2602L71.2963 12.6255ZM69.1098 21.897C68.4923 21.8969 67.8779 21.8085 67.2854 21.6345L69.1098 15.4218L70.9343 21.6366C70.3417 21.81 69.7273 21.8976 69.1098 21.897Z" fill="black"/>
<path d="M122.364 12.6255H117.991L113.026 26.8619H116.818L117.522 24.4642C119.255 24.9732 121.098 24.9732 122.832 24.4642L123.536 26.8619H127.328L122.364 12.6255ZM120.176 21.897C119.558 21.8969 118.944 21.8085 118.351 21.6345L120.176 15.4218L122 21.6366C121.408 21.81 120.793 21.8976 120.176 21.897Z" fill="black"/>
</g>
<defs>
<clipPath id="clip0_426_494">
<rect width="141.769" height="38.2299" fill="white" transform="translate(0.916016)"/>
</clipPath>
</defs>
</svg>
