<svg width="32" height="32" viewBox="0 0 32 32" fill="none" xmlns="http://www.w3.org/2000/svg">
<circle cx="16" cy="16" r="16" fill="#D1AB70"/>
<path d="M21.8337 9.3335H10.167C9.50395 9.3335 8.86807 9.59689 8.39923 10.0657C7.93038 10.5346 7.66699 11.1705 7.66699 11.8335V20.1668C7.66699 20.8299 7.93038 21.4658 8.39923 21.9346C8.86807 22.4034 9.50395 22.6668 10.167 22.6668H21.8337C22.4967 22.6668 23.1326 22.4034 23.6014 21.9346C24.0703 21.4658 24.3337 20.8299 24.3337 20.1668V11.8335C24.3337 11.1705 24.0703 10.5346 23.6014 10.0657C23.1326 9.59689 22.4967 9.3335 21.8337 9.3335ZM21.2753 11.0002L16.0003 14.9585L10.7253 11.0002H21.2753ZM21.8337 21.0002H10.167C9.94598 21.0002 9.73402 20.9124 9.57774 20.7561C9.42146 20.5998 9.33366 20.3878 9.33366 20.1668V12.0418L15.5003 16.6668C15.6446 16.775 15.82 16.8335 16.0003 16.8335C16.1806 16.8335 16.3561 16.775 16.5003 16.6668L22.667 12.0418V20.1668C22.667 20.3878 22.5792 20.5998 22.4229 20.7561C22.2666 20.9124 22.0547 21.0002 21.8337 21.0002Z" fill="white"/>
</svg>
