<svg width="32" height="32" viewBox="0 0 32 32" fill="none" xmlns="http://www.w3.org/2000/svg">
<circle cx="16" cy="16" r="16" fill="#D1AB70"/>
<path fill-rule="evenodd" clip-rule="evenodd" d="M16 7.6665C17.9891 7.6665 19.8968 8.45668 21.3033 9.8632C22.7098 11.2697 23.5 13.1774 23.5 15.1665C23.5 17.7282 22.1033 19.8248 20.6317 21.329C19.8964 22.0724 19.0941 22.7464 18.235 23.3423L17.88 23.584L17.7133 23.6948L17.3992 23.8948L17.1192 24.0657L16.7725 24.2673C16.5372 24.4016 16.2709 24.4723 16 24.4723C15.7291 24.4723 15.4628 24.4016 15.2275 24.2673L14.8808 24.0657L14.4475 23.799L14.2875 23.6948L13.9458 23.4673C13.019 22.8403 12.1558 22.1241 11.3683 21.329C9.89667 19.824 8.5 17.7282 8.5 15.1665C8.5 13.1774 9.29018 11.2697 10.6967 9.8632C12.1032 8.45668 14.0109 7.6665 16 7.6665ZM16 9.33317C14.4529 9.33317 12.9692 9.94775 11.8752 11.0417C10.7812 12.1357 10.1667 13.6194 10.1667 15.1665C10.1667 17.1015 11.2267 18.7998 12.5592 20.1632C13.1321 20.7432 13.7514 21.2755 14.4108 21.7548L14.7925 22.0265C14.9158 22.1126 15.0344 22.1926 15.1483 22.2665L15.4733 22.4748L15.7592 22.649L16 22.7898L16.3792 22.5657L16.685 22.374C16.8478 22.2707 17.0219 22.1548 17.2075 22.0265L17.5892 21.7548C18.2486 21.2755 18.8679 20.7432 19.4408 20.1632C20.7733 18.8007 21.8333 17.1015 21.8333 15.1665C21.8333 13.6194 21.2188 12.1357 20.1248 11.0417C19.0308 9.94775 17.5471 9.33317 16 9.33317ZM16 11.8332C16.8841 11.8332 17.7319 12.1844 18.357 12.8095C18.9821 13.4346 19.3333 14.2824 19.3333 15.1665C19.3333 16.0506 18.9821 16.8984 18.357 17.5235C17.7319 18.1486 16.8841 18.4998 16 18.4998C15.1159 18.4998 14.2681 18.1486 13.643 17.5235C13.0179 16.8984 12.6667 16.0506 12.6667 15.1665C12.6667 14.2824 13.0179 13.4346 13.643 12.8095C14.2681 12.1844 15.1159 11.8332 16 11.8332ZM16 13.4998C15.558 13.4998 15.134 13.6754 14.8215 13.988C14.5089 14.3006 14.3333 14.7245 14.3333 15.1665C14.3333 15.6085 14.5089 16.0325 14.8215 16.345C15.134 16.6576 15.558 16.8332 16 16.8332C16.442 16.8332 16.866 16.6576 17.1785 16.345C17.4911 16.0325 17.6667 15.6085 17.6667 15.1665C17.6667 14.7245 17.4911 14.3006 17.1785 13.988C16.866 13.6754 16.442 13.4998 16 13.4998Z" fill="white"/>
</svg>
