<svg width="32" height="32" viewBox="0 0 32 32" fill="none" xmlns="http://www.w3.org/2000/svg">
<circle cx="16" cy="16" r="16" fill="#D1AB70"/>
<path d="M22.1998 16.8333C22.0165 16.8333 21.8248 16.775 21.6415 16.7333C21.2702 16.6516 20.9054 16.543 20.5498 16.4083C20.1632 16.2677 19.7383 16.275 19.3568 16.4288C18.9752 16.5827 18.6641 16.8722 18.4832 17.2416L18.2998 17.6166C17.4883 17.1649 16.7425 16.6042 16.0832 15.95C15.429 15.2907 14.8682 14.5449 14.4165 13.7333L14.7665 13.5C15.136 13.3191 15.4255 13.0079 15.5793 12.6264C15.7332 12.2448 15.7405 11.8199 15.5998 11.4333C15.4667 11.0773 15.3581 10.7125 15.2748 10.3416C15.2332 10.1583 15.1998 9.96664 15.1748 9.77497C15.0736 9.18799 14.7662 8.65642 14.3079 8.276C13.8495 7.89559 13.2704 7.69131 12.6748 7.69997H10.1748C9.8157 7.6966 9.46005 7.77065 9.1321 7.91708C8.80415 8.06351 8.5116 8.27888 8.27437 8.54854C8.03713 8.81819 7.86079 9.1358 7.75733 9.47973C7.65387 9.82367 7.62574 10.1859 7.67484 10.5416C8.11879 14.0328 9.7132 17.2765 12.2062 19.7605C14.6992 22.2445 17.9488 23.8271 21.4415 24.2583H21.7582C22.3727 24.2592 22.966 24.0337 23.4248 23.625C23.6885 23.3892 23.8991 23.1001 24.0427 22.7769C24.1864 22.4537 24.2598 22.1037 24.2582 21.75V19.25C24.248 18.6711 24.0372 18.1138 23.6618 17.673C23.2864 17.2323 22.7697 16.9355 22.1998 16.8333ZM22.6165 21.8333C22.6164 21.9516 22.591 22.0686 22.5422 22.1763C22.4933 22.2841 22.4221 22.3802 22.3332 22.4583C22.2403 22.5391 22.1315 22.5995 22.0137 22.6354C21.896 22.6713 21.772 22.6819 21.6498 22.6666C18.5289 22.2665 15.63 20.8387 13.4104 18.6085C11.1908 16.3784 9.77685 13.4728 9.39151 10.35C9.37873 10.2279 9.39058 10.1046 9.42637 9.98717C9.46215 9.86979 9.52114 9.7608 9.59984 9.66664C9.67793 9.57775 9.77406 9.50651 9.88182 9.45765C9.98959 9.4088 10.1065 9.38345 10.2248 9.3833H12.7248C12.9186 9.37899 13.1079 9.44237 13.26 9.56253C13.4121 9.68269 13.5175 9.85211 13.5582 10.0416C13.5915 10.2694 13.6332 10.4944 13.6832 10.7166C13.7791 11.156 13.9072 11.5877 14.0665 12.0083L12.8998 12.55C12.8001 12.5957 12.7104 12.6608 12.6358 12.7413C12.5613 12.8218 12.5033 12.9163 12.4654 13.0193C12.4275 13.1223 12.4102 13.2317 12.4147 13.3414C12.4192 13.4511 12.4453 13.5588 12.4915 13.6583C13.6914 16.2269 15.7563 18.2917 18.3248 19.4916C18.5277 19.575 18.7553 19.575 18.9582 19.4916C19.0621 19.4545 19.1576 19.397 19.2391 19.3226C19.3207 19.2482 19.3866 19.1584 19.4332 19.0583L19.9498 17.8916C20.3808 18.0451 20.8205 18.1731 21.2665 18.275C21.4887 18.325 21.7137 18.3666 21.9415 18.4C22.131 18.4406 22.3005 18.5461 22.4206 18.6982C22.5408 18.8503 22.6042 19.0395 22.5998 19.2333L22.6165 21.8333Z" fill="white"/>
</svg>
