<svg width="131" height="39" viewBox="0 0 131 39" fill="none" xmlns="http://www.w3.org/2000/svg">
<g clip-path="url(#clip0_426_497)">
<path d="M36.4766 11.1608H42.5473C46.4175 11.1608 49.6147 13.4001 49.6147 18.513V19.5873C49.6147 24.739 46.6246 27.056 42.6638 27.056H36.4766V11.1608ZM39.8679 14.0473V24.1566H42.4696C44.6701 24.1566 46.1457 22.7198 46.1457 19.5226V18.6813C46.1457 15.4841 44.5924 14.0473 42.3531 14.0473H39.8679ZM51.4139 14.2027H54.1321L54.5722 17.1927C55.09 15.1605 56.4102 14.0732 58.8049 14.0732H59.6462V17.5034H58.2483C55.4912 17.5034 54.8181 18.4612 54.8181 21.1795V27.0948H51.4657V14.2027H51.4139ZM60.3193 20.9076V20.5452C60.3193 16.2349 63.0764 13.8791 66.8301 13.8791C70.6615 13.8791 73.3409 16.2349 73.3409 20.5452V20.9076C73.3409 25.1403 70.7392 27.4184 66.8301 27.4184C62.6751 27.3796 60.3193 25.1532 60.3193 20.9076ZM69.9108 20.8688V20.5452C69.9108 18.1506 68.707 16.7138 66.7913 16.7138C64.9144 16.7138 63.6718 18.0341 63.6718 20.5452V20.8688C63.6718 23.1858 64.8756 24.506 66.7913 24.506C68.707 24.4672 69.9108 23.1858 69.9108 20.8688ZM75.1013 14.2027H77.8972L78.2208 16.6361C78.8939 15.0052 80.3307 13.8791 82.4535 13.8791C85.7283 13.8791 87.8899 16.2349 87.8899 20.597V20.9594C87.8899 25.1921 85.4953 27.4314 82.4535 27.4314C80.4213 27.4314 79.0233 26.5124 78.3373 25.0367V31.5476H75.0625L75.1013 14.2027ZM84.4857 20.8688V20.584C84.4857 18.0211 83.1654 16.7526 81.405 16.7526C79.5281 16.7526 78.2855 18.1894 78.2855 20.584V20.83C78.2855 23.1081 79.4893 24.5449 81.3662 24.5449C83.2948 24.506 84.4857 23.2764 84.4857 20.8688ZM92.8475 24.7131L92.5627 27.0689H89.6891V9.89233H92.9639V16.4808C93.6888 14.7981 95.1256 13.8791 97.1578 13.8791C100.238 13.9179 102.517 16.0407 102.517 20.3122V20.7135C102.517 24.985 100.355 27.4314 97.0801 27.4314C94.9185 27.3796 93.5205 26.3829 92.8475 24.7131ZM99.0735 20.7135V20.3899C99.0735 18.0341 97.792 16.7138 95.9928 16.7138C94.1548 16.7138 92.8733 18.1894 92.8733 20.4287V20.7135C92.8733 23.1081 94.116 24.506 95.954 24.506C97.9215 24.506 99.0735 23.2764 99.0735 20.7135ZM103.953 20.9076V20.5452C103.953 16.2349 106.71 13.8791 110.464 13.8791C114.296 13.8791 116.975 16.2349 116.975 20.5452V20.9076C116.975 25.1403 114.334 27.4184 110.464 27.4184C106.309 27.3796 103.953 25.1532 103.953 20.9076ZM113.571 20.8688V20.5452C113.571 18.1506 112.367 16.7138 110.451 16.7138C108.574 16.7138 107.332 18.0341 107.332 20.5452V20.8688C107.332 23.1858 108.536 24.506 110.451 24.506C112.38 24.4672 113.571 23.1858 113.571 20.8688ZM121.363 20.3899L116.846 14.2027H120.716L123.318 18.0729L125.958 14.2027H129.789L125.207 20.351L130.035 27.0689H126.243L123.292 22.7974L120.418 27.0689H116.457L121.363 20.3899Z" fill="black"/>
<path d="M15.6107 11.161L8.10319 15.9502L15.6107 20.7395L8.10319 25.5287L0.595703 20.7136L8.10319 15.9243L0.595703 11.161L8.10319 6.3717L15.6107 11.161ZM8.06436 27.0691L15.5718 22.2798L23.0793 27.0691L15.5718 31.8583L8.06436 27.0691ZM15.6107 20.7136L23.1182 15.9243L15.6107 11.161L23.0793 6.3717L30.5868 11.161L23.0793 15.9502L30.5868 20.7395L23.0793 25.5287L15.6107 20.7136Z" fill="black"/>
</g>
<defs>
<clipPath id="clip0_426_497">
<rect width="129.823" height="38.2299" fill="white" transform="translate(0.595703)"/>
</clipPath>
</defs>
</svg>
