<svg width="179" height="54" viewBox="0 0 179 54" fill="none" xmlns="http://www.w3.org/2000/svg">
<g clip-path="url(#clip0_426_439)">
<path d="M16.3364 -0.050209C14.8976 -0.0120773 12.2148 0.0718117 10.3789 0.148075C6.89425 0.285347 1.62614 0.331104 0.5995 0.23959L0 0.178581L0.29975 0.453125C0.681932 0.796307 1.64863 1.26913 2.30808 1.43691C3.94172 1.8411 6.19734 1.87923 11.0083 1.58181C17.1682 1.20813 20.0983 1.40641 22.2415 2.35206C23.1707 2.75626 23.6353 3.06893 24.2798 3.72479C24.7519 4.19762 24.9617 4.48742 25.2315 5.02125C25.6811 5.91352 25.786 6.28721 26.0108 7.80484C26.2731 9.52074 26.3331 12.0222 26.1607 13.5855C25.6961 17.6351 24.2498 21.4711 21.7469 25.2918C17.3705 31.9648 10.0117 37.776 2.22565 40.7121L1.46128 41.0019V43.1068C1.46128 44.266 1.42381 45.6082 1.37885 46.0886C1.23647 47.6978 0.839301 49.1468 0.29975 50.0772C0.157369 50.3212 0.0374688 50.5348 0.0374688 50.5576C0.0374688 50.5729 3.62698 50.5881 8.01832 50.5881C12.4097 50.5881 15.9992 50.5729 15.9992 50.5576C15.9992 50.5348 15.8793 50.3212 15.7369 50.0772C15.2348 49.2154 14.7252 47.6597 14.7252 46.9809C14.7252 46.8818 14.6503 46.531 14.5604 46.1954C14.3281 45.3108 14.3281 43.0458 14.5604 41.6273C15.3547 36.9295 17.4754 31.9191 19.6636 29.5931C21.1399 28.0297 22.3164 28.0068 23.2306 29.5397C24.0624 30.9353 24.6619 34.3366 24.9542 39.225C25.179 43.0915 25.4038 44.7769 25.9359 46.4852C26.363 47.8503 27.1049 49.1544 27.9742 50.0619L28.4838 50.5881H35.4829H42.4746L41.995 50.0695C40.9459 48.9561 40.6986 48.5443 40.249 47.1487C39.7918 45.7378 39.3422 43.8847 38.6303 40.491C38.2931 38.9047 37.8734 36.9829 37.6861 36.2203C36.06 29.6007 33.6245 25.9324 29.5404 23.9344L28.6561 23.4997L29.3156 23.1184C32.5604 21.2347 35.7902 18.2071 37.4238 15.5226C39.7843 11.6485 39.8293 7.95736 37.5437 4.81534C36.5396 3.42736 35.5803 2.55797 34.4038 1.9555C31.3089 0.376862 25.6661 -0.248489 16.3364 -0.050209Z" fill="#D1AB70"/>
<path d="M53.9621 0.170959C54.614 0.559898 55.0187 1.2005 55.1835 2.12328C55.296 2.73338 55.296 24.186 55.1835 24.8877C55.0337 25.8638 54.5391 26.6188 53.8197 26.9773L53.4375 27.1755H56.5849H59.7248L59.41 27.0306C58.9754 26.8247 58.4808 26.3443 58.271 25.9172C57.8963 25.1546 57.8888 25.0554 57.8888 20.5941V16.4225H60.4217C62.7447 16.4225 62.9696 16.4301 63.0745 16.5522C63.1344 16.6284 64.6631 19.0459 66.4691 21.9287L69.7589 27.1755H71.8946L74.0378 27.1679L73.4233 26.84C72.6665 26.4434 72.067 25.9706 71.6473 25.4673C71.2502 24.9868 65.8172 16.3539 65.8696 16.2776C65.8846 16.2471 66.0945 16.1785 66.3343 16.1251C66.5741 16.0717 67.0761 15.9039 67.4433 15.759C69.9912 14.7676 71.7223 13.006 72.4492 10.6647C73.0112 8.85727 72.8838 6.47787 72.1419 4.81535C71.2052 2.7105 69.1144 1.10136 66.4317 0.407373C64.8355 -0.00444412 65.0453 0.00318146 59.1253 -0.0273228L53.5799 -0.0502014L53.9621 0.170959ZM64.0412 0.529394C67.1736 1.07848 69.1969 3.07656 69.8413 6.24146C70.1111 7.56843 70.0661 9.25383 69.7289 10.5884C69.077 13.189 67.2185 15.065 64.6332 15.7362C63.6965 15.9802 62.8347 16.0412 60.3093 16.0412H57.8888V8.22429V0.407373H60.609C62.7747 0.407373 63.4791 0.430252 64.0412 0.529394Z" fill="#202B58"/>
<path d="M76.9761 0.178648C77.4632 0.460819 77.8528 0.971777 78.0702 1.62001L78.235 2.12334L78.2575 13.1052C78.2725 20.1366 78.25 24.2929 78.205 24.6666C78.0552 25.8257 77.5981 26.6036 76.8262 26.9773L76.4365 27.168H79.5464H82.6563L82.3191 26.9849C81.832 26.7333 81.3225 26.1461 81.1351 25.6275C81.0452 25.3834 80.9328 24.8725 80.8953 24.4835C80.7754 23.4387 80.8354 2.314 80.9553 1.87168C81.1876 1.03279 81.6822 0.369303 82.2667 0.094759L82.5814 -0.0501404H79.5839H76.5864L76.9761 0.178648Z" fill="#202B58"/>
<path d="M88.4262 0.0413132C88.3738 0.224344 87.5645 4.0756 87.5645 4.16712C87.5645 4.21288 87.7518 3.96884 87.9841 3.62565C88.9583 2.17667 90.1198 1.27677 91.686 0.742929C92.3155 0.529394 92.338 0.529394 94.6011 0.498888L96.8717 0.468384L96.8267 12.5484C96.7893 20.4339 96.7443 24.7656 96.6918 25.0326C96.5195 25.9401 96.0174 26.6646 95.3205 26.9925L94.9458 27.1755H98.0857H101.218L100.821 26.962C100.319 26.6951 99.8542 26.1307 99.6219 25.4901L99.4421 25.0021L99.4196 12.739L99.4046 0.468384L101.668 0.498888C103.751 0.529394 103.983 0.544647 104.5 0.704798C105.137 0.895454 106.089 1.36066 106.554 1.70384C107.101 2.11566 108.022 3.09944 108.412 3.68666C108.622 3.99934 108.772 4.19 108.757 4.10611C108.734 4.02222 108.524 3.05368 108.277 1.9555L107.835 -0.0502014H98.1456C90.4645 -0.0502014 88.4562 -0.0273228 88.4262 0.0413132Z" fill="#202B58"/>
<path d="M112.624 2.1004C112.369 3.2901 112.166 4.26626 112.181 4.28151C112.189 4.28914 112.316 4.09848 112.466 3.86207C113.193 2.67237 114.257 1.67333 115.404 1.12424C116.58 0.559898 116.7 0.53702 119.226 0.506516L121.474 0.468384L121.436 12.739C121.406 22.7294 121.376 25.0554 121.294 25.3071C121.017 26.1536 120.544 26.7332 119.908 27.0306C119.6 27.1755 119.608 27.1755 122.748 27.1755C125.888 27.1755 125.895 27.1755 125.588 27.0306C125.146 26.8247 124.681 26.3748 124.464 25.9401C124.037 25.0859 124.059 25.7418 124.059 12.5941V0.483637H126.082C127.634 0.483637 128.248 0.514141 128.69 0.605656C129.32 0.735302 130.196 1.09374 130.863 1.4903C131.425 1.81823 132.722 3.13757 133.089 3.74767C133.246 4.00697 133.381 4.21288 133.396 4.20525C133.404 4.19 133.201 3.23672 132.947 2.08515L132.475 -0.0120697L122.778 -0.0349483L113.081 -0.0502014L112.624 2.1004Z" fill="#202B58"/>
<path d="M137.3 0.178587C137.787 0.460758 138.176 0.971716 138.394 1.61995L138.559 2.12328L138.581 13.1051C138.596 20.1365 138.574 24.2928 138.529 24.6665C138.379 25.8257 137.922 26.5883 137.157 26.9773L136.768 27.1755L145.191 27.1603L153.621 27.1374L154.116 25.0631C154.393 23.9191 154.64 22.8896 154.67 22.7752C154.7 22.6455 154.58 22.7828 154.348 23.1489C153.306 24.7656 151.703 25.9401 149.859 26.4205C148.892 26.6646 147.783 26.7256 144.404 26.7027L141.181 26.6798V20.1212V13.5627H143.879C146.817 13.5627 147.116 13.6008 147.888 14.0279C148.353 14.2872 148.877 14.8363 149.117 15.3167L149.305 15.698V13.2957V10.8935L149.095 11.3129C148.825 11.8391 148.233 12.4111 147.708 12.6551C146.929 13.0212 146.479 13.067 143.714 13.067H141.144V6.72954V0.399748L145.176 0.422626C149.057 0.453131 149.222 0.460758 149.799 0.620909C151.635 1.13949 153.126 2.30631 154.138 4.02222C154.288 4.27389 154.408 4.44166 154.408 4.39591C154.408 4.3349 153.771 1.42167 153.471 0.117577L153.434 -0.0502014H145.168H136.91L137.3 0.178587Z" fill="#202B58"/>
<path d="M158.538 0.140455C159.153 0.468384 159.565 1.07848 159.767 1.94788C159.932 2.64949 159.932 24.2776 159.775 25.0478C159.572 26.0011 159.078 26.6951 158.351 27.0306C158.043 27.1755 158.051 27.1755 161.183 27.1755H164.331L163.949 26.9773C163.289 26.6493 162.839 26.024 162.615 25.1393C162.525 24.7809 162.502 23.9878 162.502 20.5636V16.4225H165.035C166.774 16.4225 167.591 16.4454 167.65 16.5064C167.695 16.5522 169.232 18.9697 171.053 21.8829L174.38 27.1755H176.516L178.651 27.1679L178.014 26.8324C177.205 26.4053 176.456 25.7723 176.036 25.1698C175.766 24.7809 171.173 17.4902 170.603 16.5522C170.476 16.3386 170.461 16.2624 170.536 16.2395C170.588 16.2166 170.955 16.1175 171.345 16.0031C173.72 15.332 175.759 13.6771 176.71 11.6332C177.153 10.6952 177.347 9.81818 177.392 8.59797C177.445 7.33964 177.347 6.54651 177.033 5.5551C176.688 4.44929 176.223 3.68666 175.354 2.80964C173.983 1.41404 172.454 0.666666 169.876 0.125202C169.367 0.0184345 168.497 0.00318146 163.739 -0.0196972L158.193 -0.0502014L158.538 0.140455ZM168.617 0.521767C171.735 1.06323 173.743 2.9698 174.425 6.0508C174.635 6.99646 174.687 8.6361 174.537 9.62752C174.275 11.3892 173.653 12.7009 172.544 13.8372C171.562 14.8439 170.64 15.3777 169.277 15.7285C168.325 15.9802 167.486 16.0412 164.923 16.0412H162.502V8.22429V0.407373H165.23C167.321 0.407373 168.108 0.43788 168.617 0.521767Z" fill="#202B58"/>
<path d="M148.376 41.8029C146.937 45.6465 145.663 48.9945 145.551 49.2309C145.319 49.7418 144.839 50.2986 144.374 50.6036L144.037 50.8171H145.588C146.443 50.8171 147.14 50.8019 147.14 50.779C147.14 50.7638 147.012 50.6799 146.855 50.596C146.51 50.4206 146.113 49.9783 146.045 49.7037C145.941 49.2766 146.105 48.6665 146.862 46.6608L147.649 44.6017H150.369H153.09L153.599 45.8982C154.371 47.8429 154.783 49.1012 154.783 49.4902C154.783 49.9096 154.566 50.3596 154.244 50.6189L153.996 50.8171L155.907 50.8095H157.818L157.548 50.6646C157.234 50.4968 156.896 50.1231 156.627 49.6579C156.529 49.4749 155.24 46.0889 153.764 42.1232C152.295 38.1576 151.066 34.8935 151.044 34.863C151.021 34.8325 149.822 37.9593 148.376 41.8029ZM151.636 40.7581C152.318 42.6113 152.88 44.1747 152.895 44.2281C152.917 44.3196 152.498 44.3348 150.324 44.3348C148.271 44.3348 147.732 44.3119 147.762 44.2357C148.668 41.78 150.332 37.3949 150.362 37.3949C150.384 37.3949 150.954 38.9125 151.636 40.7581Z" fill="#202B58"/>
<path d="M54.1045 35.0765C54.4568 35.2595 54.6516 35.4807 54.794 35.862C54.9214 36.1899 54.9289 36.678 54.9289 42.8476C54.9289 49.0706 54.9214 49.5053 54.794 49.879C54.6666 50.2451 54.4792 50.4662 54.0971 50.7179C53.9846 50.7866 54.3219 50.8094 55.7157 50.8094C57.4692 50.8171 57.4767 50.8171 57.2444 50.6722C56.9147 50.4662 56.7049 50.1688 56.5775 49.7265C56.4126 49.1545 56.4126 36.5483 56.5775 35.9764C56.6899 35.5798 57.0346 35.1756 57.3643 35.0383C57.4992 34.9849 57.0121 34.9621 55.7157 34.9621C54.0071 34.9544 53.8947 34.9621 54.1045 35.0765Z" fill="#202B58"/>
<path d="M60.7214 35.1528C60.9312 35.2596 61.231 35.4884 61.3733 35.6561C61.8829 36.2662 61.8679 35.9841 61.8455 43.046C61.823 49.3987 61.823 49.4063 61.6581 49.7113C61.4483 50.1079 61.1335 50.4053 60.6839 50.6341L60.3242 50.8095L61.9728 50.8171H63.6215L63.1718 50.5578C62.6698 50.2757 62.2801 49.8181 62.1602 49.3758C62.1077 49.1775 62.0927 46.8972 62.1002 42.657L62.1227 36.2281L67.166 43.4502C69.9462 47.4158 72.2468 50.6875 72.2843 50.7104C72.3217 50.7332 72.3517 47.8429 72.3517 43.5951V36.4416L72.5315 36.0603C72.7264 35.6333 73.0561 35.313 73.5132 35.0994L73.813 34.9545H72.1644H70.5157L70.823 35.0994C71.2351 35.2901 71.6548 35.679 71.8496 36.0527C72.0145 36.3654 72.0145 36.3654 72.037 42.0393L72.0519 47.7133L67.6007 41.353L63.1494 34.9927L61.7405 34.9698L60.3242 34.9545L60.7214 35.1528Z" fill="#202B58"/>
<path d="M80.0108 35.1756C80.2731 35.3434 80.3855 35.4806 80.4905 35.7704C80.6253 36.1136 80.6328 36.4644 80.6328 42.3519V48.5673L80.468 49.1088C80.1382 50.1688 79.5013 50.6416 78.4671 50.573C77.5304 50.512 77.2531 50.2298 77.0733 49.1774C76.9759 48.5597 76.7361 48.0868 76.5038 48.0258C75.7769 47.8352 75.3422 48.4376 75.5745 49.2994C75.7469 49.9248 76.5113 50.5349 77.418 50.7713C77.9426 50.9085 79.179 50.9314 79.6886 50.8094C80.5129 50.6188 81.2698 50.0392 81.6595 49.3147C82.1316 48.4376 82.1241 48.5978 82.1691 42.1231C82.2065 36.739 82.2215 36.1822 82.3414 35.8696C82.4988 35.4654 82.6487 35.29 82.9934 35.0993C83.2556 34.962 83.2556 34.962 81.4646 34.9544H79.6661L80.0108 35.1756Z" fill="#202B58"/>
<path d="M85.3916 35.0383C85.6539 35.145 85.9836 35.4806 86.126 35.7933C86.2384 36.0297 86.2534 36.655 86.2908 41.3604C86.3358 46.4548 86.3433 46.6836 86.4932 47.2403C86.9953 49.0782 88.1868 50.2755 89.9628 50.7331C90.7421 50.9314 91.8812 51 92.698 50.8932C95.1784 50.5729 96.5123 49.0629 96.7821 46.2717C96.8196 45.8599 96.857 43.4729 96.857 40.9791C96.857 36.7542 96.872 36.4186 96.9994 36.1364C97.1568 35.7704 97.6589 35.2975 98.086 35.0993L98.3933 34.9544H96.7072H95.0211L95.3283 35.0993C95.7555 35.2975 96.2575 35.7704 96.4149 36.1364C96.5423 36.4186 96.5573 36.7618 96.5573 41.3604C96.5573 46.859 96.5348 47.1106 96.0252 48.2012C95.5606 49.2078 94.549 50.0086 93.4099 50.2908C92.7505 50.4509 91.4466 50.4204 90.8246 50.2221C89.3933 49.7798 88.4341 48.6511 87.9994 46.9123C87.8271 46.2031 87.8271 46.1955 87.8271 41.246C87.8271 36.6932 87.8346 36.2585 87.962 35.9C88.0968 35.4958 88.3741 35.1679 88.6888 35.0383C88.8237 34.9849 88.3291 34.962 87.0402 34.962C85.7513 34.962 85.2567 34.9849 85.3916 35.0383Z" fill="#202B58"/>
<path d="M100.865 35.1299C101.045 35.2367 101.24 35.435 101.352 35.6409L101.54 35.9841V42.8858V49.7876L101.352 50.1308C101.24 50.3367 101.045 50.535 100.865 50.6417L100.565 50.8171H102.364C104.147 50.8171 104.162 50.8171 103.938 50.6722C103.593 50.4587 103.406 50.207 103.271 49.8028C103.173 49.4978 103.151 49.0326 103.151 47.004V44.5636H104.635H106.111L108.059 47.6599C109.131 49.3681 110.045 50.7714 110.082 50.7866C110.127 50.8095 110.682 50.8095 111.319 50.8019L112.481 50.779L112.106 50.5731C111.364 50.1765 111.169 49.9172 109.453 47.1947C108.539 45.7457 107.797 44.5407 107.797 44.5026C107.797 44.4721 107.977 44.4035 108.194 44.3501C108.749 44.2204 109.708 43.7247 110.232 43.29C111.454 42.2834 112.031 40.6285 111.746 38.9278C111.581 37.9288 111.289 37.3492 110.577 36.6247C110.135 36.1824 109.858 35.9764 109.371 35.7248C108.052 35.0689 107.13 34.9545 103.361 34.9545H100.565L100.865 35.1299ZM107.063 35.4045C108.704 35.8315 109.775 36.9755 110.082 38.638C110.51 40.9183 109.663 42.9621 107.939 43.8239C107.1 44.2357 106.485 44.3348 104.687 44.3348H103.151V39.7972V35.2596H104.822C106.231 35.2596 106.59 35.2825 107.063 35.4045Z" fill="#202B58"/>
<path d="M114.063 35.1528C114.49 35.4426 114.745 35.7019 115.022 36.1366C115.164 36.3425 116.139 38.1728 117.195 40.1938L119.121 43.8696L119.099 46.8286L119.076 49.7876L118.889 50.1308C118.776 50.3367 118.581 50.535 118.402 50.6417L118.102 50.8171H119.9H121.699L121.384 50.6265C121.174 50.4968 121.017 50.3214 120.897 50.0698C120.725 49.7113 120.725 49.6885 120.702 46.5998L120.68 43.4959L122.418 40.0794C123.37 38.2033 124.284 36.4874 124.457 36.2662C124.809 35.7934 125.341 35.3053 125.708 35.0994L125.97 34.9622L124.397 34.9545C122.83 34.9545 122.823 34.9545 123.048 35.0994C123.745 35.5341 123.932 36.2357 123.587 37.067C123.273 37.8144 120.5 43.1833 120.44 43.168C120.402 43.1604 119.593 41.6428 118.649 39.8125C117.397 37.3949 116.91 36.3806 116.888 36.1442C116.835 35.7248 116.97 35.3053 117.218 35.107L117.412 34.9545H115.591H113.771L114.063 35.1528Z" fill="#202B58"/>
<path d="M133.464 35.1299C133.644 35.2367 133.839 35.435 133.951 35.6409L134.138 35.9841V42.8477V49.7113L133.966 50.0698C133.846 50.3214 133.689 50.4968 133.479 50.6265L133.164 50.8171H138.02C140.688 50.8171 142.868 50.8019 142.868 50.7943C142.868 50.779 143.003 50.1689 143.168 49.4444C143.333 48.7199 143.468 48.1098 143.468 48.0869C143.468 48.0641 143.363 48.209 143.236 48.4072C142.629 49.3376 141.812 50.0393 141.01 50.3291C140.523 50.5045 140.44 50.5121 138.132 50.5121H135.749V43.351C135.749 37.128 135.764 36.1518 135.862 35.862C136.004 35.4655 136.147 35.2901 136.499 35.0994C136.761 34.9622 136.761 34.9622 134.963 34.9622L133.164 34.9545L133.464 35.1299Z" fill="#202B58"/>
<path d="M159.354 35.0992C160.133 35.5263 160.178 35.6407 162.726 43.5568C163.985 47.4614 165.027 50.6644 165.049 50.6644C165.072 50.6644 165.911 47.8808 166.915 44.4872C167.927 41.0858 168.774 38.3328 168.804 38.3633C168.826 38.4014 169.718 41.1774 170.789 44.5482C171.854 47.9113 172.745 50.6415 172.775 50.611C172.798 50.5729 173.742 47.4614 174.859 43.694C175.983 39.919 176.972 36.6474 177.054 36.4262C177.249 35.8924 177.804 35.3204 178.328 35.1145L178.725 34.962H177.189C176.148 34.962 175.713 34.9848 175.833 35.0382C176.35 35.2518 176.74 35.7703 176.74 36.2661C176.74 36.4796 173.517 47.4156 173.375 47.6673C173.322 47.7741 169.77 36.6169 169.77 36.3271C169.77 35.9381 169.943 35.5263 170.22 35.2441L170.505 34.9543H168.661H166.818L167.155 35.1679C167.597 35.4577 168.002 36.0754 168.347 37.0058L168.639 37.7837L167.162 42.7331C166.353 45.4633 165.671 47.6902 165.649 47.6902C165.619 47.6902 164.802 45.1506 163.82 42.0544C161.887 35.9458 161.947 36.2203 162.284 35.5568C162.359 35.4043 162.509 35.1984 162.621 35.1145L162.824 34.9543H160.958C159.092 34.962 159.092 34.962 159.354 35.0992Z" fill="#202B58"/>
</g>
<defs>
<clipPath id="clip0_426_439">
<rect width="179" height="54" fill="white"/>
</clipPath>
</defs>
</svg>
