<svg width="178" height="39" viewBox="0 0 178 39" fill="none" xmlns="http://www.w3.org/2000/svg">
<g clip-path="url(#clip0_426_493)">
<path d="M177.942 17.1858V14.0561H174.056V9.19121L173.925 9.23117L170.275 10.3482L170.204 10.3701V14.0561H164.442V12.0028C164.442 11.0467 164.656 10.3148 165.078 9.82721C165.496 9.34482 166.095 9.0998 166.858 9.0998C167.407 9.0998 167.975 9.22909 168.547 9.48384L168.69 9.54779V6.25237L168.623 6.22804C168.089 6.03585 167.363 5.93958 166.464 5.93958C165.331 5.93958 164.301 6.18598 163.402 6.67498C162.517 7.15106 161.788 7.87213 161.302 8.75191C160.808 9.63954 160.558 10.6644 160.558 11.7988V14.0565H157.852V17.1861H160.558V30.3696H164.442V17.1858H170.204V25.5637C170.204 29.0141 171.831 30.763 175.041 30.763C175.595 30.7597 176.148 30.6982 176.69 30.5795C177.267 30.4554 177.66 30.3313 177.891 30.1989L177.942 30.1687V27.0102L177.785 27.1148C177.574 27.2555 177.311 27.3702 177.003 27.4554C176.694 27.5423 176.436 27.5861 176.236 27.5861C175.484 27.5861 174.928 27.3834 174.582 26.9834C174.233 26.5803 174.056 25.8744 174.056 24.8874V17.1858H177.942ZM149.177 27.5864C147.767 27.5864 146.655 27.1186 145.872 26.198C145.084 25.2721 144.684 23.9528 144.684 22.2759C144.684 20.5462 145.084 19.1925 145.872 18.2503C146.656 17.3147 147.757 16.8396 149.145 16.8396C150.492 16.8396 151.564 17.2932 152.332 18.1888C153.104 19.0886 153.496 20.4315 153.496 22.1814C153.496 23.9528 153.127 25.3138 152.401 26.224C151.68 27.1277 150.595 27.5864 149.177 27.5864ZM149.35 13.6631C146.66 13.6631 144.523 14.4513 143 16.0059C141.478 17.5608 140.706 19.7121 140.706 22.4014C140.706 24.9555 141.459 27.0098 142.945 28.5067C144.431 30.0039 146.454 30.7623 148.956 30.7623C151.564 30.7623 153.658 29.9633 155.181 28.3872C156.703 26.8128 157.474 24.6816 157.474 22.0549C157.474 19.4612 156.75 17.3915 155.322 15.9047C153.893 14.4172 151.883 13.6631 149.35 13.6631ZM134.442 13.6631C132.612 13.6631 131.099 14.1312 129.943 15.0539C128.78 15.9822 128.19 17.2 128.19 18.6733C128.19 19.4389 128.317 20.1191 128.568 20.696C128.82 21.275 129.21 21.7845 129.728 22.2123C130.243 22.6367 131.037 23.0812 132.09 23.533C132.974 23.8972 133.634 24.2055 134.053 24.4481C134.463 24.6861 134.754 24.9253 134.918 25.1581C135.078 25.3858 135.159 25.6979 135.159 26.0826C135.159 27.1787 134.338 27.7119 132.649 27.7119C132.023 27.7119 131.308 27.5812 130.525 27.3233C129.748 27.0692 129.015 26.6973 128.351 26.2206L128.19 26.1052V29.8448L128.249 29.8726C128.798 30.1263 129.491 30.34 130.308 30.5086C131.124 30.6768 131.864 30.7626 132.507 30.7626C134.493 30.7626 136.092 30.2924 137.258 29.3641C138.433 28.4292 139.028 27.1833 139.028 25.6586C139.028 24.5593 138.708 23.6161 138.076 22.8556C137.449 22.1015 136.361 21.4088 134.843 20.7968C133.633 20.3113 132.858 19.9084 132.539 19.5991C132.23 19.3002 132.074 18.8776 132.074 18.3428C132.074 17.868 132.267 17.4881 132.664 17.1802C133.064 16.8709 133.62 16.7135 134.317 16.7135C134.964 16.7135 135.626 16.8156 136.285 17.0158C136.943 17.2164 137.521 17.485 138.004 17.8131L138.162 17.9215V14.3738L138.101 14.3477C137.656 14.1566 137.069 13.9932 136.357 13.8612C135.646 13.7298 135.002 13.6631 134.442 13.6631ZM118.062 27.5864C116.653 27.5864 115.541 27.1186 114.758 26.198C113.969 25.2721 113.571 23.9528 113.571 22.2759C113.571 20.5462 113.97 19.1925 114.759 18.2503C115.542 17.3147 116.642 16.8396 118.031 16.8396C119.378 16.8396 120.45 17.2932 121.218 18.1888C121.99 19.0886 122.382 20.4315 122.382 22.1814C122.382 23.9528 122.013 25.3138 121.287 26.224C120.565 27.1277 119.481 27.5864 118.062 27.5864ZM118.236 13.6631C115.545 13.6631 113.408 14.4513 111.886 16.0059C110.364 17.5608 109.591 19.7121 109.591 22.4014C109.591 24.9565 110.346 27.0098 111.831 28.5067C113.317 30.0039 115.34 30.7623 117.842 30.7623C120.449 30.7623 122.544 29.9633 124.067 28.3872C125.589 26.8128 126.361 24.6816 126.361 22.0549C126.361 19.4612 125.636 17.3915 124.208 15.9047C122.779 14.4172 120.769 13.6631 118.236 13.6631ZM103.695 16.8813V14.0561H99.8573V30.3689H103.694V22.024C103.694 20.6049 104.016 19.4393 104.651 18.5589C105.278 17.689 106.113 17.248 107.132 17.248C107.478 17.248 107.866 17.305 108.286 17.4179C108.702 17.5299 109.004 17.6515 109.181 17.7794L109.343 17.8965V14.0283L109.28 14.0016C108.923 13.8497 108.417 13.7732 107.778 13.7732C106.813 13.7732 105.951 14.0829 105.212 14.6928C104.563 15.2291 104.094 15.9645 103.735 16.8813H103.695ZM92.9857 13.6631C91.2254 13.6631 89.6548 14.0408 88.3192 14.7849C86.9812 15.5304 85.9458 16.5957 85.2417 17.9493C84.5407 19.3002 84.1848 20.8781 84.1848 22.6377C84.1848 24.1787 84.5299 25.5932 85.2118 26.8395C85.8944 28.0883 86.8606 29.0652 88.0832 29.7429C89.3045 30.4196 90.7159 30.7626 92.2781 30.7626C94.1017 30.7626 95.6587 30.3981 96.9074 29.6793L96.9574 29.6501V26.1347L96.7965 26.2525C96.2221 26.6688 95.5895 26.9981 94.9191 27.2298C94.2407 27.4665 93.6227 27.5861 93.0806 27.5861C91.5747 27.5861 90.3662 27.1151 89.4887 26.1865C88.6094 25.2561 88.1635 23.9504 88.1635 22.3069C88.1635 20.6532 88.6285 19.3138 89.5446 18.325C90.4583 17.3397 91.6692 16.84 93.1438 16.84C94.4051 16.84 95.634 17.2671 96.7965 18.1106L96.9574 18.2274V14.5232L96.9056 14.494C96.4677 14.249 95.8713 14.0468 95.1304 13.8935C94.3929 13.7406 93.6714 13.6631 92.9857 13.6631ZM81.5421 14.0561H77.7045V30.3689H81.5421V14.0561ZM79.6625 7.10698C79.0311 7.10698 78.4802 7.32211 78.0277 7.74785C77.5731 8.17533 77.3423 8.71333 77.3423 9.34795C77.3423 9.97283 77.5703 10.5008 78.0201 10.9168C78.4673 11.3314 79.0199 11.5417 79.6625 11.5417C80.3048 11.5417 80.8595 11.3314 81.312 10.9175C81.7673 10.5008 81.9984 9.97283 81.9984 9.34795C81.9984 8.73557 81.7735 8.20279 81.3308 7.76523C80.8883 7.32836 80.3267 7.10698 79.6625 7.10698ZM70.0884 12.8529V30.3685H74.0045V7.6064H68.5846L61.6952 24.5134L55.0098 7.6064H49.3691V30.3689H53.0493V12.8512H53.1758L60.2355 30.3689H63.0124L69.9619 12.8526L70.0884 12.8529Z" fill="black"/>
<path d="M18.0511 18.0511H0V0H18.0511V18.0511Z" fill="black"/>
<path d="M37.9818 18.0511H19.9307V0H37.9818V18.0511Z" fill="black"/>
<path d="M18.0508 37.989H0V19.9379H18.0508V37.989Z" fill="black"/>
<path d="M37.9818 37.989H19.9307V19.9379H37.9818V37.989Z" fill="black"/>
</g>
<defs>
<clipPath id="clip0_426_493">
<rect width="177.943" height="38.2299" fill="white"/>
</clipPath>
</defs>
</svg>
