<svg width="104" height="39" viewBox="0 0 104 39" fill="none" xmlns="http://www.w3.org/2000/svg">
<g clip-path="url(#clip0_426_495)">
<path d="M36.4485 27.6968V16.1043H36.655L45.0932 27.6968H47.7486V10.6731H44.7982V22.2363H44.5916L36.1534 10.6731H33.4981V27.6968H36.4485ZM56.0983 27.9596C59.9928 27.9596 62.3827 25.4484 62.3827 21.2435C62.3827 17.0679 59.9928 14.5275 56.0983 14.5275C52.2332 14.5275 49.8139 17.0679 49.8139 21.2435C49.8434 25.4484 52.2037 27.9596 56.0983 27.9596ZM56.0983 25.5068C54.033 25.5068 52.8528 23.9592 52.8528 21.2435C52.8528 18.5571 54.033 16.9803 56.0983 16.9803C58.1636 16.9803 59.3437 18.5571 59.3437 21.2435C59.3437 23.9592 58.1636 25.5068 56.0983 25.5068ZM65.0676 11.6367V14.8779H63.0023V17.2139H65.0676V24.2512C65.0676 26.7624 66.2477 27.7552 69.2571 27.7552C69.8177 27.7552 70.3783 27.6968 70.8209 27.6092V25.3316C70.4668 25.3608 70.2308 25.39 69.8177 25.39C68.5785 25.39 68.018 24.8352 68.018 23.5504V17.2139H70.8209V14.8779H68.018V11.6367H65.0676ZM72.5911 27.6968H75.5415V14.7903H72.5911V27.6968ZM74.0663 12.6587C75.04 12.6587 75.8366 11.8703 75.8366 10.9067C75.8366 9.91387 75.04 9.12547 74.0663 9.12547C73.0927 9.12547 72.2961 9.91387 72.2961 10.9067C72.2961 11.8703 73.0927 12.6587 74.0663 12.6587ZM83.6257 27.9596C87.5202 27.9596 89.9101 25.4484 89.9101 21.2435C89.9101 17.0679 87.5202 14.5275 83.6257 14.5275C79.7606 14.5275 77.3413 17.0679 77.3413 21.2435C77.3413 25.4484 79.7016 27.9596 83.6257 27.9596ZM83.6257 25.5068C81.5604 25.5068 80.3802 23.9592 80.3802 21.2435C80.3802 18.5571 81.5604 16.9803 83.6257 16.9803C85.6615 16.9803 86.8711 18.5571 86.8711 21.2435C86.8416 23.9592 85.6615 25.5068 83.6257 25.5068ZM91.6508 27.6968H94.6012V20.1923C94.6012 18.2943 95.7224 17.0971 97.4631 17.0971C99.2629 17.0971 100.089 18.0899 100.089 20.0463V27.6968H103.039V19.3455C103.039 16.2503 101.446 14.5275 98.5548 14.5275C96.6075 14.5275 95.3093 15.4035 94.6897 16.8635H94.4832V14.7903H91.6213C91.6508 14.7903 91.6508 27.6968 91.6508 27.6968Z" fill="black"/>
<path fill-rule="evenodd" clip-rule="evenodd" d="M5.20859 9.58348C6.06731 10.2762 6.37791 10.2215 7.98573 10.1122L23.1322 9.20064C23.461 9.20064 23.187 8.87249 23.0773 8.83603L20.556 7.03122C20.0809 6.66661 19.4232 6.22908 18.1991 6.33846L3.54595 7.41406C3.0161 7.46875 2.90648 7.74221 3.12573 7.94274L5.20859 9.58348ZM6.12212 13.102V28.9989C6.12212 29.8558 6.54235 30.1657 7.5107 30.111L24.1553 29.1448C25.1237 29.0901 25.2333 28.5067 25.2333 27.8139V12.0264C25.2333 11.3336 24.9592 10.9508 24.3746 11.0055L6.98085 12.0264C6.34137 12.0811 6.12212 12.4092 6.12212 13.102ZM22.5475 13.9588C22.6571 14.4328 22.5475 14.925 22.0725 14.9797L21.2685 15.1438V26.8842C20.5743 27.2488 19.9348 27.4676 19.3867 27.4676C18.5279 27.4676 18.3087 27.1941 17.6692 26.392L12.4255 18.17V26.1185L14.0882 26.4831C14.0882 26.4831 14.0882 27.4493 12.7544 27.4493L9.06371 27.6681C8.95408 27.4493 9.06371 26.9207 9.42912 26.8113L10.3975 26.5378V16.0371L9.06371 15.9277C8.95408 15.4537 9.22814 14.7609 9.97724 14.7062L13.942 14.4328L19.4049 22.7459V15.399L18.0164 15.2349C17.9067 14.6516 18.3452 14.214 18.8751 14.1593L22.5475 13.9588ZM2.32181 5.95562L17.5779 4.84356C19.4415 4.67949 19.9348 4.78887 21.1041 5.6457L25.9641 9.0548C26.768 9.63817 27.0421 9.80225 27.0421 10.4403V29.163C27.0421 30.3297 26.6219 31.0225 25.1237 31.1319L7.41934 32.2075C6.28656 32.2622 5.75671 32.0981 5.17205 31.3507L1.57272 26.7019C0.93324 25.8451 0.65918 25.207 0.65918 24.4595V7.81513C0.65918 6.84891 1.09768 6.065 2.32181 5.95562Z" fill="black"/>
</g>
<defs>
<clipPath id="clip0_426_495">
<rect width="102.743" height="38.2299" fill="white" transform="translate(0.65918)"/>
</clipPath>
</defs>
</svg>
