<svg width="43" height="51" viewBox="0 0 43 51" fill="none" xmlns="http://www.w3.org/2000/svg">
<path d="M16.3364 -0.050209C14.8976 -0.0120773 12.2148 0.0718117 10.3789 0.148075C6.89425 0.285347 1.62614 0.331104 0.5995 0.23959L0 0.178581L0.29975 0.453125C0.681932 0.796307 1.64863 1.26913 2.30808 1.43691C3.94172 1.8411 6.19734 1.87923 11.0083 1.58181C17.1682 1.20813 20.0983 1.40641 22.2415 2.35206C23.1707 2.75626 23.6353 3.06893 24.2798 3.72479C24.7519 4.19762 24.9617 4.48742 25.2315 5.02125C25.6811 5.91352 25.786 6.28721 26.0108 7.80484C26.2731 9.52074 26.3331 12.0222 26.1607 13.5855C25.6961 17.6351 24.2498 21.4711 21.7469 25.2918C17.3705 31.9648 10.0117 37.776 2.22565 40.7121L1.46128 41.0019V43.1068C1.46128 44.266 1.42381 45.6082 1.37885 46.0886C1.23647 47.6978 0.839301 49.1468 0.29975 50.0772C0.157369 50.3212 0.0374688 50.5348 0.0374688 50.5576C0.0374688 50.5729 3.62698 50.5881 8.01832 50.5881C12.4097 50.5881 15.9992 50.5729 15.9992 50.5576C15.9992 50.5348 15.8793 50.3212 15.7369 50.0772C15.2348 49.2154 14.7252 47.6597 14.7252 46.9809C14.7252 46.8818 14.6503 46.531 14.5604 46.1954C14.3281 45.3108 14.3281 43.0458 14.5604 41.6273C15.3547 36.9295 17.4754 31.9191 19.6636 29.5931C21.1399 28.0297 22.3164 28.0068 23.2306 29.5397C24.0624 30.9353 24.6619 34.3366 24.9542 39.225C25.179 43.0915 25.4038 44.7769 25.9359 46.4852C26.363 47.8503 27.1049 49.1544 27.9742 50.0619L28.4838 50.5881H35.4829H42.4746L41.995 50.0695C40.9459 48.9561 40.6986 48.5443 40.249 47.1487C39.7918 45.7378 39.3422 43.8847 38.6303 40.491C38.2931 38.9047 37.8734 36.9829 37.6861 36.2203C36.06 29.6007 33.6245 25.9324 29.5404 23.9344L28.6561 23.4997L29.3156 23.1184C32.5604 21.2347 35.7902 18.2071 37.4238 15.5226C39.7843 11.6485 39.8293 7.95736 37.5437 4.81534C36.5396 3.42736 35.5803 2.55797 34.4038 1.9555C31.3089 0.376862 25.6661 -0.248489 16.3364 -0.050209Z" fill="#D1AB70"/>
</svg>
