<svg width="125" height="39" viewBox="0 0 125 39" fill="none" xmlns="http://www.w3.org/2000/svg">
<g clip-path="url(#clip0_426_496)">
<path d="M121.552 22.6722C121.481 23.025 121.358 23.3248 121.19 23.5893C121.023 23.8535 120.802 24.0655 120.521 24.2327C120.247 24.3917 119.904 24.4795 119.498 24.4795C119.101 24.4795 118.757 24.4004 118.484 24.2327C118.211 24.0732 117.979 23.853 117.805 23.5893C117.637 23.325 117.514 23.025 117.435 22.6722C117.357 22.322 117.319 21.9642 117.32 21.6055C117.32 21.2353 117.356 20.8648 117.426 20.5215C117.497 20.1687 117.62 19.8601 117.788 19.5957C117.955 19.322 118.176 19.1107 118.457 18.9346C118.731 18.7669 119.074 18.6788 119.48 18.6788C119.877 18.6788 120.212 18.7669 120.485 18.9346C120.759 19.1039 120.991 19.3329 121.164 19.6044C121.34 19.8776 121.464 20.1948 121.543 20.5389C121.622 20.8915 121.658 21.244 121.658 21.6055C121.658 21.967 121.622 22.3196 121.552 22.6722ZM123.897 19.8248C123.729 19.2341 123.483 18.7228 123.147 18.2732C122.803 17.8326 122.38 17.4708 121.869 17.2066C121.358 16.9421 120.741 16.801 120.027 16.801C119.462 16.801 118.951 16.9157 118.484 17.1362C118.016 17.3566 117.628 17.7179 117.329 18.2028H117.294V17.0479H114.931V29.2755H117.417V24.9819H117.452C117.745 25.4132 118.146 25.7599 118.616 25.987C119.092 26.2162 119.603 26.3309 120.167 26.3309C120.829 26.3309 121.411 26.1988 121.913 25.943C122.398 25.6946 122.823 25.3424 123.156 24.9114C123.491 24.4795 123.738 23.9856 123.897 23.4216C124.065 22.8573 124.144 22.2758 124.144 21.6672C124.144 21.0238 124.065 20.4068 123.897 19.8159V19.8248ZM111.634 22.6722C111.563 23.025 111.44 23.3248 111.272 23.5893C111.105 23.8538 110.884 24.0655 110.602 24.2327C110.329 24.3917 109.985 24.4795 109.58 24.4795C109.183 24.4795 108.848 24.4004 108.566 24.2327C108.293 24.073 108.061 23.8529 107.887 23.5893C107.72 23.325 107.596 23.025 107.517 22.6722C107.439 22.322 107.401 21.9642 107.402 21.6055C107.402 21.2353 107.437 20.8648 107.508 20.5215C107.579 20.1687 107.702 19.8601 107.869 19.5957C108.037 19.322 108.257 19.1107 108.539 18.9346C108.813 18.7669 109.156 18.6788 109.562 18.6788C109.959 18.6788 110.294 18.7669 110.567 18.9346C110.841 19.1039 111.073 19.3329 111.246 19.6044C111.422 19.8776 111.546 20.1948 111.625 20.5389C111.704 20.8915 111.739 21.244 111.739 21.6055C111.739 21.967 111.704 22.3196 111.634 22.6722ZM113.229 18.2732C112.894 17.8326 112.462 17.4708 111.951 17.2066C111.44 16.9421 110.823 16.801 110.108 16.801C109.544 16.801 109.033 16.9157 108.566 17.1362C108.099 17.3566 107.711 17.7179 107.411 18.2028H107.375V17.0479H105.013V29.2755H107.499V24.9819H107.534C107.827 25.4132 108.229 25.7599 108.698 25.987C109.174 26.2162 109.685 26.3309 110.249 26.3309C110.919 26.3309 111.492 26.1988 111.995 25.943C112.48 25.6944 112.904 25.3422 113.238 24.9114C113.573 24.4795 113.82 23.9856 113.988 23.4216C114.15 22.851 114.234 22.2606 114.235 21.6672C114.235 21.0238 114.155 20.4068 113.988 19.8159C113.82 19.2254 113.573 18.7139 113.229 18.2645V18.2732ZM96.8666 21.2706L98.4975 16.6774H98.5329L100.111 21.2706H96.8666ZM97.1311 13.5919L92.397 26.1015H95.1652L96.144 23.3158H100.825L101.768 26.1015H104.625L99.9436 13.5919H97.1224H97.1311ZM92.1942 22.1345C92.0265 21.8523 91.815 21.6055 91.5418 21.4117C91.2774 21.2179 90.9686 21.0676 90.6247 20.9444C90.2764 20.83 89.9234 20.7301 89.5668 20.6449C89.2142 20.5653 88.8704 20.4859 88.5352 20.4155C88.2001 20.3451 87.8916 20.2655 87.636 20.1774C87.3718 20.0893 87.1601 19.9748 87.0013 19.8335C86.8336 19.6924 86.7545 19.5163 86.7545 19.2871C86.7545 19.102 86.7986 18.952 86.8953 18.8373C86.9924 18.7228 87.1071 18.6435 87.2392 18.5818C87.3716 18.5201 87.5213 18.4847 87.689 18.4673C87.8412 18.4505 87.9942 18.4417 88.1473 18.4409C88.5882 18.4409 88.9761 18.529 89.3026 18.6965C89.6288 18.8639 89.8139 19.1901 89.8402 19.6661H92.2029C92.1586 19.1018 92.0091 18.6435 91.771 18.273C91.5329 17.9025 91.2333 17.6119 90.8718 17.3915C90.5103 17.171 90.096 17.0125 89.6375 16.9155C89.1791 16.8185 88.7029 16.7744 88.2093 16.7744C87.7159 16.7744 87.2397 16.8187 86.7724 16.9065C86.3052 16.9946 85.8822 17.1446 85.512 17.3651C85.133 17.5855 84.833 17.8766 84.6128 18.2466C84.3834 18.6168 84.2689 19.102 84.2689 19.6835C84.2689 20.0803 84.348 20.4152 84.5157 20.6884C84.6745 20.9621 84.8947 21.191 85.1592 21.3761C85.4326 21.5525 85.7324 21.7026 86.0763 21.817C86.4201 21.9315 86.7727 22.0288 87.1342 22.1079C88.0247 22.293 88.7124 22.4781 89.2147 22.6632C89.7084 22.8483 89.9554 23.1305 89.9554 23.5007C89.9554 23.7211 89.9024 23.9063 89.7967 24.056C89.6932 24.2024 89.5574 24.323 89.3998 24.4086C89.2411 24.4967 89.0647 24.5586 88.8709 24.6024C88.6887 24.6439 88.5024 24.6646 88.3155 24.6641C88.0687 24.6641 87.8306 24.638 87.6102 24.5761C87.381 24.5143 87.1782 24.4258 87.0021 24.3026C86.8257 24.1792 86.6846 24.0205 86.5702 23.8266C86.4555 23.6328 86.4025 23.4034 86.4025 23.1389H84.0398C84.0661 23.747 84.1988 24.2496 84.4543 24.6552C84.7011 25.061 85.0273 25.3782 85.4152 25.625C85.8031 25.8718 86.2527 26.048 86.7553 26.1537C87.2579 26.2597 87.7689 26.3127 88.2979 26.3127C88.8094 26.3127 89.3205 26.2597 89.8144 26.1625C90.308 26.0657 90.7489 25.8893 91.1368 25.6424C91.5247 25.3956 91.8332 25.0694 92.0713 24.6726C92.3092 24.2673 92.4326 23.7736 92.4326 23.174C92.4326 22.751 92.3534 22.3985 92.1858 22.1161L92.1942 22.1345ZM81.9057 14.3326H79.4196V17.0479H77.9119V18.7139H79.4196V24.0565C79.4196 24.5151 79.4988 24.8766 79.6488 25.1585C79.7988 25.4409 80.0103 25.6521 80.2748 25.8111C80.5393 25.9609 80.8393 26.0667 81.183 26.1197C81.5449 26.1735 81.9103 26.2 82.2762 26.1988C82.523 26.1988 82.7698 26.1901 83.0343 26.1814C83.2678 26.1735 83.5005 26.1498 83.7307 26.1107V24.1799C83.609 24.2074 83.4853 24.225 83.3608 24.2327C83.2258 24.2432 83.0906 24.2491 82.9552 24.2504C82.532 24.2504 82.2585 24.1799 82.1177 24.0386C81.9766 23.8978 81.906 23.6154 81.906 23.2014V18.7139H83.7307V17.0479H81.906V14.3326H81.9057ZM74.7734 22.6018C74.7734 22.7426 74.756 22.9279 74.7294 23.1661C74.6997 23.4096 74.6185 23.644 74.4912 23.8538C74.3591 24.0832 74.1651 24.277 73.8919 24.4447C73.6276 24.6119 73.2395 24.6915 72.7548 24.6915C72.5607 24.6915 72.3667 24.6736 72.1729 24.6385C71.9877 24.6029 71.8203 24.5412 71.6792 24.4534C71.5381 24.3651 71.4324 24.2506 71.3441 24.0919C71.265 23.9421 71.2207 23.757 71.2207 23.5276C71.2207 23.2895 71.265 23.1044 71.3441 22.9459C71.4234 22.7956 71.5379 22.6722 71.6705 22.5667C71.8026 22.4696 71.9614 22.3905 72.1465 22.3288C72.3316 22.2671 72.508 22.2228 72.7018 22.1875C72.9009 22.1533 73.1007 22.1239 73.3012 22.0994C73.504 22.073 73.6893 22.0464 73.8745 22.0113C74.0596 21.9763 74.227 21.932 74.3858 21.8792C74.5445 21.8265 74.6766 21.7558 74.7826 21.6588V22.5846L74.7734 22.6018ZM77.2595 24.0916V19.375C77.2595 18.8286 77.1361 18.3877 76.8895 18.0528C76.6427 17.7177 76.325 17.4621 75.946 17.277C75.5581 17.0919 75.1349 16.9685 74.6677 16.8981C74.209 16.8354 73.7467 16.803 73.2838 16.801C72.7809 16.801 72.2786 16.854 71.785 16.9511C71.2916 17.0481 70.8417 17.2153 70.4449 17.4537C70.0542 17.6861 69.72 18.0023 69.4663 18.3795C69.2108 18.7674 69.0608 19.2521 69.0257 19.834H71.5118C71.5558 19.3406 71.7233 18.9968 72.0052 18.785C72.2876 18.5733 72.6665 18.4678 73.1604 18.4678C73.3808 18.4678 73.5921 18.4852 73.7864 18.5119C73.967 18.5356 74.1409 18.5956 74.2977 18.6883C74.4477 18.7763 74.5622 18.8997 74.6505 19.0585C74.7386 19.2172 74.7826 19.4285 74.7826 19.7019C74.7913 19.9574 74.7209 20.1517 74.5532 20.2926C74.3858 20.4247 74.1653 20.5307 73.8834 20.6011C73.6015 20.6715 73.284 20.7245 72.9225 20.7598C72.561 20.7952 72.1908 20.8392 71.8205 20.9009C71.4503 20.9626 71.0798 21.0417 70.7096 21.1388C70.3394 21.2358 70.0129 21.3856 69.7308 21.5886C69.4399 21.7911 69.2108 22.0556 69.0257 22.3818C68.8406 22.717 68.7522 23.1402 68.7522 23.6515C68.7522 24.1187 68.8314 24.5243 68.9903 24.8592C69.1392 25.1857 69.3626 25.4727 69.6427 25.6969C69.9338 25.9233 70.2662 26.091 70.6213 26.1906C70.9915 26.2963 71.3971 26.3491 71.829 26.3491C72.3933 26.3491 72.9399 26.2699 73.4776 26.1022C74.0094 25.9399 74.4916 25.6458 74.8794 25.2473C74.8881 25.3971 74.9147 25.5467 74.9411 25.6969C74.9675 25.8378 75.0115 25.9878 75.0558 26.1289H77.5772C77.4625 25.9437 77.3744 25.6614 77.3304 25.2911C77.2837 24.9021 77.2601 24.5106 77.2597 24.1187V24.0916H77.2595ZM67.0156 17.8324C66.7687 17.5151 66.4336 17.2594 66.0106 17.0829C65.5874 16.8978 65.041 16.8095 64.3707 16.8095C63.9035 16.8095 63.4275 16.9329 62.9339 17.171C62.4402 17.4091 62.0434 17.797 61.7261 18.317H61.6731V13.6006H59.187V26.1105H61.6731V21.3587C61.6731 20.4329 61.8232 19.7718 62.1317 19.3663C62.4315 18.9607 62.9251 18.7669 63.6039 18.7669C64.1946 18.7669 64.6178 18.952 64.8469 19.322C65.0763 19.6922 65.1997 20.2478 65.1997 20.9969V26.1105H67.6858V20.5389C67.6858 19.9746 67.6328 19.4635 67.5358 19.005C67.4388 18.5464 67.2624 18.1498 67.0156 17.8324ZM53.8708 22.2228H53.8354L51.7021 13.6009H49.1277L46.9589 22.1171H46.9235L44.9398 13.6009H42.1895L45.5041 26.1107H48.29L50.3705 17.5942H50.4059L52.5217 26.1107H55.2546L56.7532 20.5566L58.6223 13.6009H55.9244L53.8708 22.2228Z" fill="black"/>
<path d="M18.8712 33.6391C15.8295 33.6391 12.9908 32.7222 10.6194 31.162L4.85355 33.0041L6.7226 27.4326C4.92421 24.9639 3.86653 21.9225 3.86653 18.6429C3.86653 10.3735 10.5931 3.64701 18.8624 3.64701C27.1318 3.64701 33.8584 10.3735 33.8584 18.6429C33.8584 26.9121 27.1318 33.6389 18.8624 33.6389H18.8712V33.6391ZM18.8712 0.808105C9.02332 0.808105 1.03633 8.79585 1.03633 18.6432C1.03633 22.0108 1.97086 25.1669 3.59284 27.8558L0.375 37.4212L10.2492 34.2564C12.8884 35.7158 15.8553 36.4802 18.8712 36.478C28.7187 36.478 36.706 28.4908 36.706 18.6432C36.7057 8.79585 28.7187 0.808105 18.8712 0.808105Z" fill="black"/>
<path fill-rule="evenodd" clip-rule="evenodd" d="M3.56152 18.7167C3.56152 10.1524 10.526 3.18591 19.0879 3.18591V3.18617H19.0969C27.6589 3.18617 34.6234 10.1526 34.6234 18.717C34.6234 27.281 27.6589 34.2477 19.0969 34.2477C15.9387 34.2477 13.0086 33.3075 10.5533 31.6823L4.58372 33.5901L6.51889 27.8199C4.65688 25.2631 3.56152 22.1132 3.56152 18.7167ZM13.7325 10.5239C14.1731 10.5418 14.3936 10.5682 14.6844 11.2646C14.7784 11.4913 14.9074 11.8044 15.0489 12.1476C15.4517 13.1248 15.955 14.3456 16.0332 14.5088C16.139 14.7292 16.245 15.0291 16.0949 15.3199C15.9637 15.5988 15.8478 15.7328 15.6547 15.9559C15.6403 15.9726 15.6254 15.9898 15.61 16.0076C15.5157 16.1171 15.423 16.2152 15.3305 16.3131C15.2069 16.4439 15.0837 16.5742 14.9576 16.7307C14.9541 16.7348 14.9506 16.739 14.947 16.7431C14.7473 16.9775 14.5302 17.2322 14.7815 17.6652C15.037 18.0971 15.9185 19.534 17.2146 20.6887C18.7527 22.0566 20.023 22.5703 20.5959 22.8019C20.647 22.8226 20.6925 22.841 20.7322 22.8576C21.0935 23.0076 21.5257 22.9723 21.7902 22.6901C22.0768 22.3811 22.4214 21.8976 22.78 21.3946C22.8406 21.3095 22.9016 21.224 22.9628 21.1386C23.2624 20.7153 23.6413 20.6623 24.0381 20.8121C24.4437 20.9532 26.5862 22.0111 27.0268 22.2316C27.1168 22.2766 27.2006 22.3169 27.2778 22.354C27.5786 22.4987 27.7802 22.5956 27.8643 22.7429C27.9703 22.928 27.9703 23.8008 27.6088 24.8237C27.2473 25.846 25.8102 26.6927 24.6641 26.9395C23.8797 27.107 22.8568 27.2393 19.4098 25.8112C15.327 24.1205 12.5903 20.1535 12.0337 19.3467C11.9893 19.2824 11.9588 19.2382 11.9426 19.2168C11.9364 19.2082 11.929 19.1982 11.9206 19.1866C11.6405 18.8037 10.1619 16.7821 10.1619 14.6939C10.1619 12.6031 11.1947 11.5534 11.6572 11.0834C11.6705 11.0698 11.6834 11.0568 11.6958 11.0441C12.0573 10.6739 12.6567 10.5065 13.2299 10.5065C13.3976 10.5073 13.5652 10.5131 13.7325 10.5239Z" fill="black"/>
</g>
<defs>
<clipPath id="clip0_426_496">
<rect width="124.247" height="38.2299" fill="white" transform="translate(0.375)"/>
</clipPath>
</defs>
</svg>
